<svg width="12" height="14" viewBox="0 0 12 14" fill="none" xmlns="http://www.w3.org/2000/svg">
<path fill-rule="evenodd" clip-rule="evenodd" d="M4.91386 0.254935L1.55499 1.89748C0.583433 2.37259 -0.0577133 3.43657 0.00411009 4.60441C0.245807 9.17005 1.46094 11.18 4.61839 13.5321C5.45484 14.1551 6.55742 14.1567 7.39325 13.5326C10.5604 11.1678 11.7321 9.12935 11.995 4.62022C12.0635 3.44467 11.4214 2.36939 10.443 1.89097L7.09748 0.254935C6.40239 -0.0849786 5.60896 -0.084978 4.91386 0.254935ZM5.33335 10.5C5.33335 10.1134 5.63183 9.8 6.00002 9.8C6.36821 9.8 6.66669 10.1134 6.66669 10.5C6.66669 10.8866 6.36821 11.2 6.00002 11.2C5.63183 11.2 5.33335 10.8866 5.33335 10.5ZM5.50002 8.4C5.50002 8.68995 5.72388 8.925 6.00002 8.925C6.27616 8.925 6.50002 8.68995 6.50002 8.4L6.50002 3.5C6.50002 3.21005 6.27616 2.975 6.00002 2.975C5.72388 2.975 5.50002 3.21005 5.50002 3.5L5.50002 8.4Z" fill="#1E201E"/>
</svg>
