<svg width="22" height="22" viewBox="0 0 22 22" fill="none" xmlns="http://www.w3.org/2000/svg">
<path fill-rule="evenodd" clip-rule="evenodd" d="M6.49715 1.68736C6.87667 1.5214 7.04979 1.07921 6.88383 0.699696C6.71787 0.320182 6.27568 0.147061 5.89617 0.313019C3.63941 1.29988 1.72454 2.92041 0.375531 4.94934C0.146191 5.29427 0.239895 5.75981 0.584825 5.98915C0.929754 6.21849 1.39529 6.12478 1.62463 5.77986C2.81588 3.98821 4.50681 2.55772 6.49715 1.68736ZM16.104 0.313019C15.7245 0.147061 15.2823 0.320182 15.1163 0.699696C14.9504 1.07921 15.1235 1.5214 15.503 1.68736C17.4934 2.55772 19.1843 3.98821 20.3755 5.77985C20.6049 6.12478 21.0704 6.21849 21.4153 5.98915C21.7603 5.75981 21.854 5.29427 21.6246 4.94934C20.2756 2.92041 18.3607 1.29988 16.104 0.313019ZM18.4493 17.8963C19.7333 16.2763 20.5001 14.2277 20.5001 12C20.5001 6.75329 16.2468 2.5 11.0001 2.5C5.75336 2.5 1.50006 6.75329 1.50006 12C1.50006 14.2276 2.26679 16.2762 3.55075 17.8962L1.41742 20.5277C1.15657 20.8495 1.20596 21.3218 1.52772 21.5826C1.84948 21.8435 2.32178 21.7941 2.58263 21.4723L4.58283 19.005C6.27326 20.5544 8.52623 21.5 11.0001 21.5C13.4738 21.5 15.7268 20.5545 17.4172 19.0051L19.4174 21.4723C19.6783 21.7941 20.1506 21.8435 20.4723 21.5826C20.7941 21.3218 20.8435 20.8495 20.5826 20.5277L18.4493 17.8963ZM11 6.25C11.4142 6.25 11.75 6.58579 11.75 7V11.5986L14.416 13.376C14.7607 13.6057 14.8538 14.0714 14.624 14.416C14.3943 14.7607 13.9286 14.8538 13.584 14.624L10.584 12.624C10.3753 12.4849 10.25 12.2508 10.25 12V7C10.25 6.58579 10.5858 6.25 11 6.25Z" fill="#BBBBBB"/>
</svg>
