<svg width="14" height="16" viewBox="0 0 14 16" fill="none" xmlns="http://www.w3.org/2000/svg">
<path fill-rule="evenodd" clip-rule="evenodd" d="M3.59628 0.500342C3.88472 0.384966 4.21208 0.525263 4.32745 0.813703C4.44283 1.10214 4.30253 1.4295 4.01409 1.54488L3.88867 1.59505C2.90928 1.9868 2.12803 2.75514 1.72002 3.72787L1.66242 3.86519C1.54225 4.15167 1.2126 4.28649 0.926122 4.16633C0.639643 4.04616 0.50482 3.71651 0.624986 3.43003L0.682586 3.29271C1.20718 2.04206 2.21164 1.0542 3.47086 0.55051L3.59628 0.500342ZM10.4037 0.533485C10.1152 0.418108 9.78787 0.558405 9.6725 0.846845C9.55712 1.13529 9.69742 1.46264 9.98586 1.57802L10.1113 1.62819C11.0907 2.01994 11.8719 2.78829 12.2799 3.76101L12.3375 3.89833C12.4577 4.18481 12.7874 4.31963 13.0738 4.19947C13.3603 4.0793 13.4951 3.74965 13.375 3.46317L13.3174 3.32585C12.7928 2.07521 11.7883 1.08734 10.5291 0.583652L10.4037 0.533485ZM2.66709 12.5004H11.3329C12.7042 12.5004 13.4869 11.1211 12.6641 10.1545C12.2999 9.72662 12.0754 9.21909 12.015 8.68687L11.6796 5.73182C11.4988 4.1384 10.3092 2.83082 8.70244 2.28067V2.20289C8.70244 1.26264 7.94022 0.500427 6.99998 0.500427C6.05973 0.500427 5.29752 1.26264 5.29752 2.20289V2.28067C3.69072 2.83082 2.50117 4.1384 2.32032 5.73182L1.98493 8.68687C1.92453 9.21909 1.70006 9.72662 1.33581 10.1545C0.513043 11.1211 1.2958 12.5004 2.66709 12.5004ZM9.22905 14.0541C8.88601 14.8998 8.01736 15.5004 6.99998 15.5004C5.98259 15.5004 5.11394 14.8998 4.7709 14.0541C4.7566 14.0188 4.74998 13.9809 4.74998 13.9429C4.74998 13.7674 4.89218 13.6252 5.0676 13.6252H8.93236C9.10777 13.6252 9.24998 13.7674 9.24998 13.9429C9.24998 13.9809 9.24335 14.0188 9.22905 14.0541Z" fill="#1E201E"/>
</svg>
