<?xml version="1.0" encoding="UTF-8" standalone="no"?>
<!-- Created with Inkscape (http://www.inkscape.org/) -->

<svg
   xmlns:dc="http://purl.org/dc/elements/1.1/"
   xmlns:cc="http://creativecommons.org/ns#"
   xmlns:rdf="http://www.w3.org/1999/02/22-rdf-syntax-ns#"
   xmlns:svg="http://www.w3.org/2000/svg"
   xmlns="http://www.w3.org/2000/svg"
   xmlns:sodipodi="http://sodipodi.sourceforge.net/DTD/sodipodi-0.dtd"
   xmlns:inkscape="http://www.inkscape.org/namespaces/inkscape"
   width="85.795227mm"
   height="85.613754mm"
   viewBox="0 0 85.795227 85.613754"
   version="1.1"
   id="svg8"
   inkscape:version="0.92.4 (5da689c313, 2019-01-14)"
   sodipodi:docname="behance_icon_svg.svg">
  <defs
     id="defs2" />
  <sodipodi:namedview
     id="base"
     pagecolor="#ffffff"
     bordercolor="#666666"
     borderopacity="1.0"
     inkscape:pageopacity="0.0"
     inkscape:pageshadow="2"
     inkscape:zoom="0.35"
     inkscape:cx="-328.22476"
     inkscape:cy="101.00988"
     inkscape:document-units="mm"
     inkscape:current-layer="layer1"
     showgrid="false"
     fit-margin-top="0"
     fit-margin-left="0"
     fit-margin-right="0"
     fit-margin-bottom="0"
     inkscape:window-width="1920"
     inkscape:window-height="1001"
     inkscape:window-x="-9"
     inkscape:window-y="-9"
     inkscape:window-maximized="1" />
  <metadata
     id="metadata5">
    <rdf:RDF>
      <cc:Work
         rdf:about="">
        <dc:format>image/svg+xml</dc:format>
        <dc:type
           rdf:resource="http://purl.org/dc/dcmitype/StillImage" />
        <dc:title></dc:title>
      </cc:Work>
    </rdf:RDF>
  </metadata>
  <g
     inkscape:label="Layer 1"
     inkscape:groupmode="layer"
     id="layer1"
     transform="translate(-66.432087,-89.945112)">
    <g
       id="g826"
       transform="translate(-16.630952,-40.821429)">
      <path
         style="fill:#d5d5d5;stroke-width:0.26458332"
         d="m 93.221728,216.0558 c -4.740288,-1.03887 -8.7214,-5.067 -9.734915,-9.84989 -0.565032,-2.66645 -0.565032,-62.56383 0,-65.23028 1.061571,-5.00967 5.347374,-9.12638 10.374563,-9.96525 1.296395,-0.21632 10.631424,-0.27979 33.157524,-0.22545 l 31.35312,0.0756 1.56614,0.59647 c 4.3892,1.67164 7.59406,5.26137 8.49557,9.5158 0.56605,2.67134 0.56605,62.56454 0,65.23588 -0.90151,4.25443 -4.10637,7.84416 -8.49557,9.5158 l -1.56614,0.59647 -31.75,0.0482 c -26.00436,0.0395 -32.048642,-0.0172 -33.400292,-0.31343 z m 22.459102,-25.89166 c 3.79725,-0.89377 6.40327,-3.69026 7.13385,-7.65528 0.42453,-2.30399 -0.13444,-4.73178 -1.55452,-6.75182 -0.54348,-0.77309 -1.10659,-1.57676 -1.25137,-1.78594 -0.17458,-0.25225 -0.17458,-0.50841 0,-0.76066 0.14478,-0.20918 0.70789,-1.01285 1.25137,-1.78594 3.79236,-5.39457 0.89202,-12.88391 -5.57933,-14.4071 -1.05521,-0.24836 -3.69031,-0.35291 -8.9687,-0.35583 l -7.474481,-0.004 v 16.93333 16.93334 l 7.474481,-0.004 c 5.27839,-0.003 7.91349,-0.10747 8.9687,-0.35583 z m -12.1437,-3.90979 c -0.24097,-0.24335 -0.33073,-1.68149 -0.33073,-5.29885 0,-4.63782 0.0337,-4.9829 0.51177,-5.23875 0.68852,-0.36849 9.14494,-0.35355 10.88311,0.0192 1.50646,0.32308 3.15156,1.59334 3.87786,2.99429 1.18783,2.2912 0.1317,5.55869 -2.24905,6.95816 -1.24393,0.73123 -1.27554,0.73503 -6.80598,0.81728 -4.2136,0.0627 -5.63617,0.002 -5.88698,-0.25136 z m 0.13229,-14.80144 c -0.41503,-0.24173 -0.46302,-0.78602 -0.46302,-5.25122 0,-4.0138 0.074,-5.04299 0.38113,-5.29785 0.27635,-0.22935 1.89477,-0.29281 5.88698,-0.23084 5.47283,0.085 5.51334,0.0899 6.75558,0.82012 2.38075,1.39947 3.43688,4.66697 2.24905,6.95816 -0.7263,1.40095 -2.3714,2.67121 -3.87786,2.99429 -1.71691,0.36821 -10.30239,0.37398 -10.93186,0.007 z m 39.56045,18.68245 c 2.43326,-0.51562 4.71937,-1.79202 6.29253,-3.51332 0.71995,-0.78774 1.309,-1.51813 1.309,-1.6231 0,-0.10496 -0.77081,-0.60138 -1.71291,-1.10315 l -1.71291,-0.91231 -0.41553,0.5907 c -0.66689,0.94802 -2.55041,2.10787 -4.20342,2.58841 -1.76183,0.51218 -3.29524,0.37957 -5.24096,-0.45324 -1.39632,-0.59766 -3.53544,-2.71599 -3.79765,-3.76075 -0.38353,-1.52811 -0.70236,-1.47866 9.53445,-1.47866 h 9.40101 l -0.003,-1.78594 c -0.0119,-6.76252 -5.19637,-11.95723 -11.94568,-11.96925 -5.72602,-0.0102 -10.61067,4.20409 -11.63894,10.04164 -1.0378,5.89172 3.17556,12.07903 9.10213,13.36649 2.15355,0.46782 2.87477,0.46961 5.03202,0.0125 z m -9.42,-13.81056 c -0.36917,-0.36917 -0.1487,-1.22372 0.59434,-2.30369 1.9321,-2.80821 5.79394,-4.04686 9.10248,-2.91953 2.16767,0.7386 5.03162,3.83416 4.59645,4.96819 -0.14726,0.38374 -0.93645,0.43142 -7.14122,0.43142 -3.83661,0 -7.05504,-0.0794 -7.15205,-0.17639 z m 16.49236,-17.68299 v -1.98437 h -9.39271 -9.39271 v 1.98437 1.98438 h 9.39271 9.39271 z"
         id="path840"
         inkscape:connector-curvature="0" />
      <path
         style="fill:#a5a5a5;stroke-width:0.26458332"
         d="m 93.445478,215.90252 c -4.660868,-0.91535 -8.942339,-5.27704 -9.818565,-10.00255 -0.359579,-1.93921 -0.359579,-62.67919 0,-64.6184 0.897079,-4.83797 5.157504,-9.09544 10.025599,-10.01865 2.051563,-0.38908 62.762638,-0.36895 64.640338,0.0214 4.84562,1.0074 9.11928,5.28003 9.99965,9.99722 0.36272,1.94355 0.36272,62.67485 0,64.6184 -0.88037,4.71719 -5.15403,8.98982 -9.99965,9.99722 -1.70409,0.35428 -63.044861,0.35932 -64.847372,0.005 z m 23.651542,-25.89351 c 2.20189,-0.87274 4.58699,-3.2685 5.41384,-5.43803 1.21615,-3.19101 0.71382,-6.65044 -1.36441,-9.39625 -0.55369,-0.73156 -1.00672,-1.44434 -1.00672,-1.58396 0,-0.13962 0.45303,-0.8524 1.00672,-1.58396 2.07823,-2.74581 2.58056,-6.20523 1.36441,-9.39625 -0.82604,-2.16738 -3.21118,-4.56414 -5.41384,-5.44019 -1.55162,-0.61713 -1.77286,-0.63155 -9.78958,-0.63831 l -8.202083,-0.007 -0.06857,16.80104 c -0.03772,9.24057 -0.0082,16.95895 0.06559,17.15196 0.108532,0.28387 1.688573,0.33268 8.270663,0.2555 7.8303,-0.0918 8.19623,-0.1191 9.72399,-0.72464 z m -13.44965,-3.89463 c -0.097,-0.097 -0.17639,-2.40599 -0.17639,-5.13107 0,-4.27394 0.0575,-4.97674 0.41852,-5.11527 0.75346,-0.28913 9.62504,-0.17089 10.87957,0.145 2.47673,0.62365 4.35742,3.38471 3.91431,5.74666 -0.37311,1.98886 -1.92281,3.73985 -3.76194,4.25058 -1.08477,0.30124 -10.98551,0.39266 -11.27407,0.1041 z m 0.14833,-14.86209 c -0.2575,-0.16343 -0.31976,-1.3921 -0.26458,-5.22147 l 0.0721,-5.00776 5.10967,-0.0719 c 5.69529,-0.0802 6.74224,0.0888 8.13649,1.31295 1.6383,1.43845 2.23074,3.27501 1.69848,5.26527 -0.41892,1.56639 -2.14369,3.22739 -3.77884,3.63913 -1.37722,0.34679 -10.44982,0.41606 -10.97337,0.0838 z m 38.83361,19.26422 c 2.54575,-0.39698 5.15996,-1.77805 6.98254,-3.68883 0.83958,-0.88022 1.48167,-1.7349 1.42687,-1.8993 -0.0548,-0.1644 -0.88453,-0.7277 -1.84385,-1.25178 l -1.74421,-0.95286 -1.325,1.23937 c -1.75364,1.64033 -2.93875,2.13114 -5.21614,2.16025 -2.80802,0.0359 -5.4032,-1.38528 -6.60511,-3.6171 -0.98085,-1.82132 -1.23953,-1.77174 9.24264,-1.77174 h 9.40101 l -0.003,-1.91823 c -0.0134,-8.19828 -7.38716,-13.99897 -15.20632,-11.96234 -5.84554,1.52257 -9.81426,7.55792 -8.86742,13.48493 0.92254,5.77487 5.61966,9.9779 11.64147,10.41688 0.21828,0.0159 1.17078,-0.0918 2.11667,-0.23925 z m -8.73125,-14.91275 c 0,-0.82659 2.1225,-3.18668 3.54209,-3.93859 1.60636,-0.85083 5.11273,-0.83434 6.77666,0.0319 1.47818,0.76951 2.2594,1.47118 3.09323,2.77825 1.13245,1.77517 1.18378,1.76132 -6.52451,1.76132 h -6.88747 z m 16.61331,-16.8958 -0.0769,-2.18281 h -9.525 -9.525 l -0.0768,2.18281 -0.0769,2.18281 h 9.67869 9.67869 z"
         id="path838"
         inkscape:connector-curvature="0" />
      <path
         style="fill:#8d8d8d;stroke-width:0.26458332"
         d="m 92.304957,215.41537 c -2.163746,-0.69487 -3.574256,-1.59886 -5.271185,-3.37825 -1.633013,-1.71237 -2.333691,-2.90914 -2.980478,-5.09072 -0.381405,-1.28646 -0.426061,-4.78512 -0.426061,-33.38008 0,-30.54425 0.02183,-32.01312 0.498474,-33.54459 0.696323,-2.23729 1.577671,-3.63084 3.388509,-5.35775 1.724522,-1.6446 2.938377,-2.35162 5.132575,-2.98949 1.314616,-0.38217 4.748887,-0.41818 33.858699,-0.35503 l 32.3957,0.0703 2.04522,0.97663 c 3.39602,1.62166 5.81036,4.31819 6.84622,7.64639 0.48031,1.54327 0.50127,2.94675 0.50127,33.57802 0,30.63127 -0.021,32.03476 -0.50127,33.57802 -1.03586,3.32821 -3.4502,6.02474 -6.84622,7.64639 l -2.04522,0.97663 -32.54375,0.054 c -30.902746,0.0513 -32.619828,0.0296 -34.052483,-0.43048 z m 25.492473,-25.61885 c 5.59513,-2.75598 7.21923,-9.5824 3.48622,-14.65333 l -1.14282,-1.55242 1.14282,-1.55241 c 3.73308,-5.07104 2.10886,-11.8976 -3.48642,-14.65334 l -1.74591,-0.85987 h -8.60527 -8.605276 l -0.06857,16.80104 c -0.03772,9.24057 -0.0093,16.95598 0.06306,17.14536 0.105198,0.27518 1.846976,0.32831 8.674046,0.26458 l 8.54242,-0.0797 z m -14.15006,-3.94672 c -0.22045,-0.22045 -0.23492,-8.88821 -0.0158,-9.45926 0.13919,-0.36274 0.87087,-0.41774 5.4901,-0.41271 6.01804,0.007 6.75617,0.17842 8.29528,1.93138 2.02829,2.31009 1.21576,6.20398 -1.57664,7.55576 -1.06592,0.516 -1.59674,0.56122 -6.58795,0.56122 -2.98574,0 -5.50799,-0.0794 -5.605,-0.17639 z m -0.0484,-15.23559 c -0.0807,-0.32742 -0.11274,-2.55984 -0.0712,-4.96094 l 0.0755,-4.36562 5.52754,-0.0716 c 5.18948,-0.0672 5.59913,-0.037 6.69819,0.49507 2.80387,1.35733 3.62059,5.24622 1.58797,7.56125 -1.54027,1.75427 -2.27481,1.92481 -8.31855,1.93137 -5.33336,0.006 -5.35331,0.004 -5.4995,-0.5895 z m 42.53415,18.89964 c 1.68039,-0.81336 2.58895,-1.46198 3.60478,-2.57346 0.74697,-0.81731 1.35703,-1.68478 1.35568,-1.92771 -0.002,-0.38902 -3.10727,-2.42607 -3.6981,-2.42607 -0.11296,0 -0.50286,0.39 -0.86644,0.86667 -0.9859,1.29258 -3.11993,2.34942 -5.05423,2.50301 -1.99957,0.15877 -3.45492,-0.21427 -4.88912,-1.2532 -1.15826,-0.83904 -2.68758,-2.74348 -2.68758,-3.34681 0,-0.29311 1.6788,-0.35717 9.36032,-0.35717 8.19157,0 9.40344,-0.052 9.7058,-0.4163 0.63178,-0.76125 -0.016,-4.97083 -1.12388,-7.30375 -4.36896,-9.19978 -17.3953,-9.25962 -21.9337,-0.10075 -0.90257,1.82146 -1.10329,2.52271 -1.22289,4.27236 -0.26265,3.84216 0.91789,7.13195 3.47795,9.69201 2.64579,2.64579 5.41405,3.70182 9.31027,3.55166 2.1898,-0.0844 2.62356,-0.19425 4.66114,-1.18049 z M 134.1886,175.99366 c -0.30523,-0.19325 -0.24735,-0.44572 0.32675,-1.42535 1.33181,-2.27255 4.49097,-3.8655 6.9875,-3.52331 2.40804,0.33006 4.85245,1.88738 5.79839,3.69413 0.77588,1.48194 0.70856,1.49785 -6.31727,1.49342 -3.53345,-0.002 -6.59136,-0.10973 -6.79537,-0.23889 z m 16.32241,-17.28897 0.0765,-2.31838 -9.73379,0.0694 -9.73378,0.0694 -0.0782,1.9427 c -0.0489,1.21342 0.0388,2.08374 0.23357,2.31841 0.26071,0.31412 1.8564,0.36432 9.73553,0.30625 l 9.42371,-0.0695 z"
         id="path836"
         inkscape:connector-curvature="0" />
      <path
         style="fill:#6e6e6e;stroke-width:0.26458332"
         d="m 92.957644,215.51623 c -3.263198,-0.87882 -6.435274,-3.36515 -7.846625,-6.15031 -1.542434,-3.04385 -1.483786,-1.6298 -1.483786,-35.77515 0,-34.14535 -0.05865,-32.7313 1.483786,-35.77514 0.890156,-1.75664 3.317766,-4.18425 5.074403,-5.07441 3.042772,-1.54189 1.650532,-1.48378 35.553128,-1.48378 21.66063,0 31.57941,0.0888 32.5543,0.29149 4.75696,0.98897 8.87081,5.1018 9.73506,9.73264 0.36273,1.94355 0.36273,62.67485 0,64.6184 -0.86425,4.63084 -4.9781,8.74367 -9.73506,9.73264 -0.97793,0.20332 -10.86296,0.28623 -32.67604,0.27408 -26.039595,-0.0145 -31.505797,-0.0798 -32.659166,-0.39046 z m 23.742506,-25.07929 c 4.00741,-1.53659 6.63392,-5.13764 6.69073,-9.17325 0.0313,-2.22493 -0.64714,-4.32816 -1.95252,-6.05286 -0.56873,-0.75142 -1.03405,-1.48044 -1.03405,-1.62006 0,-0.13962 0.46532,-0.86864 1.03405,-1.62005 1.30538,-1.72471 1.98383,-3.82794 1.95252,-6.05287 -0.0568,-4.03588 -2.68582,-7.63997 -6.69073,-9.17225 -1.00264,-0.38361 -2.41728,-0.47166 -8.95943,-0.55765 -4.27284,-0.0562 -8.053079,-0.0308 -8.400524,0.0564 l -0.631714,0.15855 v 17.17082 c 0,13.48358 0.07102,17.20171 0.330729,17.31463 0.181901,0.0791 3.962139,0.11259 8.400519,0.0744 6.8919,-0.0592 8.24358,-0.136 9.26042,-0.52589 z m -12.84709,-4.75078 c -0.0718,-0.18701 -0.0978,-2.41943 -0.0578,-4.96093 l 0.0726,-4.62092 h 5.42395 c 4.81599,0 5.53862,0.0569 6.4469,0.50776 1.25716,0.62403 2.44806,2.21318 2.67787,3.57339 0.39144,2.31691 -1.23172,4.93194 -3.44219,5.54562 -1.56005,0.4331 -10.95245,0.39517 -11.12133,-0.0449 z m 0.007,-14.79715 c -0.0759,-0.19775 -0.10528,-2.43895 -0.0653,-4.98045 l 0.0726,-4.62091 4.97691,-0.0721 c 5.75685,-0.0833 6.75481,0.0999 8.15109,1.49613 1.75303,1.75303 1.95901,4.32232 0.5072,6.32648 -1.33095,1.83733 -2.05961,2.02739 -8.14592,2.12468 -4.33109,0.0692 -5.38508,0.0167 -5.49659,-0.27388 z m 40.22397,19.58724 c 2.37201,-0.59443 5.59587,-2.85124 6.88624,-4.8206 0.57201,-0.87299 0.39973,-1.08869 -1.81437,-2.27166 l -1.7149,-0.91626 -1.32041,1.23509 c -2.19435,2.05255 -4.64327,2.71842 -7.23105,1.96613 -2.216,-0.64421 -4.72738,-2.86944 -4.72738,-4.18874 0,-0.44603 0.56605,-0.47858 9.45885,-0.54391 l 9.45885,-0.0695 0.0795,-1.6799 c 0.45452,-9.61027 -9.83943,-16.07597 -18.28021,-11.48193 -3.1769,1.72909 -5.71819,5.45552 -6.28285,9.2129 -0.55072,3.66455 0.78863,7.54248 3.56331,10.31715 3.19807,3.19808 7.46672,4.35835 11.92446,3.24122 z m -9.92187,-14.99614 c 0,-0.78787 2.00268,-2.84354 3.49448,-3.58693 3.13127,-1.56038 7.24127,-0.49589 9.22659,2.38968 0.42497,0.61768 0.77268,1.25042 0.77268,1.40611 0,0.19361 -2.13178,0.28305 -6.74688,0.28305 -6.40018,0 -6.74687,-0.0253 -6.74687,-0.49191 z m 16.61418,-16.53265 c 0.0488,-1.30256 -0.0372,-2.21407 -0.23083,-2.4474 -0.25421,-0.3063 -1.93031,-0.37179 -9.51494,-0.37179 -5.06351,0 -9.39472,0.0723 -9.6249,0.1606 -0.3347,0.12844 -0.41851,0.5965 -0.41851,2.33715 0,1.19711 0.0808,2.25738 0.1796,2.35616 0.0988,0.0988 4.53386,0.14839 9.85572,0.11024 l 9.67613,-0.0694 z"
         id="path834"
         inkscape:connector-curvature="0" />
      <path
         style="fill:#bbbbbb;fill-opacity:0;stroke-width:0.26458332"
         d="m 93.945982,215.63209 c -4.935855,-0.80868 -9.230235,-5.21034 -10.040497,-10.29132 -0.370981,-2.32633 -0.376606,-61.12385 -0.0061,-63.5 0.817842,-5.24468 5.129924,-9.50512 10.443447,-10.31838 1.25993,-0.19284 11.749498,-0.25893 32.808328,-0.20671 l 30.95625,0.0768 1.56614,0.59512 c 4.49924,1.70965 7.65268,5.43238 8.34643,9.85321 0.36833,2.34709 0.36833,61.15291 0,63.5 -0.69374,4.42077 -3.84685,8.14316 -8.34643,9.85336 l -1.56614,0.59526 -31.35312,0.0406 c -17.57666,0.0227 -31.992538,-0.0642 -32.808333,-0.19786 z m 23.836078,-25.56421 c 2.11078,-1.03288 3.97481,-2.93596 4.93843,-5.0419 0.57683,-1.26061 0.69531,-1.91099 0.7095,-3.89458 0.0148,-2.06259 -0.0798,-2.58788 -0.70634,-3.92533 -0.39785,-0.84925 -1.09247,-2.01011 -1.54359,-2.57969 l -0.82021,-1.03561 0.82021,-1.03561 c 0.45112,-0.56958 1.14574,-1.73044 1.54359,-2.57968 0.62657,-1.33745 0.72109,-1.86275 0.70634,-3.92533 -0.0142,-1.9836 -0.13267,-2.63397 -0.7095,-3.89458 -0.96362,-2.10594 -2.82765,-4.00903 -4.93843,-5.04191 l -1.74337,-0.8531 h -8.59896 -8.598956 l -0.06856,17.06563 c -0.03771,9.38609 -0.0088,17.22192 0.06421,17.41296 0.106725,0.27919 1.807156,0.3311 8.667516,0.26458 l 8.53474,-0.0828 z m -13.72221,-4.25047 c -0.25642,-0.17285 -0.31979,-1.33168 -0.26459,-4.83791 l 0.0726,-4.6106 5.02708,-0.0776 c 2.7649,-0.0427 5.41658,-0.007 5.89264,0.0792 1.07577,0.19489 2.66791,1.56166 3.1426,2.69776 0.94845,2.26996 0.049,4.95734 -2.06398,6.16704 -1.10224,0.63103 -1.36652,0.66178 -6.3098,0.73403 -2.83766,0.0415 -5.31111,-0.0269 -5.49655,-0.1519 z m -0.1479,-15.04886 c -0.097,-0.097 -0.17638,-2.23787 -0.17638,-4.75746 v -4.58107 l 0.64858,-0.16278 c 0.35672,-0.0895 2.82727,-0.12157 5.4901,-0.0712 4.58798,0.0868 4.90177,0.12609 5.99195,0.75021 3.46612,1.98435 3.11555,7.32388 -0.57234,8.71726 -0.81046,0.30622 -11.08591,0.40103 -11.38191,0.10503 z m 39.85684,19.89005 c 0.83339,-0.21707 2.13497,-0.70871 2.89242,-1.09253 1.64535,-0.83377 4.69935,-3.79407 4.69935,-4.55518 0,-0.393 -0.53624,-0.83115 -2.01896,-1.64963 l -2.01897,-1.11449 -0.8253,0.93098 c -2.93026,3.30546 -7.57312,3.58134 -10.70361,0.63601 -1.00827,-0.94864 -1.72749,-2.18001 -1.49398,-2.55784 0.0978,-0.15822 3.75896,-0.25681 9.53581,-0.25681 h 9.3771 v -2.34018 c 0,-7.12114 -5.28845,-12.47649 -12.32063,-12.47649 -5.91316,0 -10.65536,3.6843 -12.15554,9.44385 -2.3,8.83032 6.20199,17.33232 15.03231,15.03231 z m -9.46812,-14.94189 c -0.24561,-0.3974 1.12033,-2.27392 2.19804,-3.01967 3.21359,-2.22374 6.78443,-1.92654 9.50179,0.79083 0.78045,0.78044 1.39131,1.63122 1.39131,1.93773 0,0.53727 -0.10831,0.54642 -6.46667,0.54642 -3.86923,0 -6.53006,-0.10255 -6.62447,-0.25531 z m 16.47451,-17.00875 -0.0761,-2.4474 h -9.78958 -9.78958 l -0.0761,2.4474 -0.0761,2.44739 h 9.94173 9.94173 z"
         id="path832"
         inkscape:connector-curvature="0" />
      <path
         style="fill:#bbbbbb;fill-opacity:0;stroke-width:0.26458332"
         d="m 92.957644,215.25164 c -4.381306,-1.17993 -7.521103,-4.35602 -8.671157,-8.77139 -0.593155,-2.27727 -0.593155,-63.50169 0,-65.77896 1.164794,-4.47195 4.312653,-7.61981 8.784598,-8.7846 1.302588,-0.33928 5.916895,-0.39376 32.878925,-0.3882 20.67809,0.004 31.76932,0.0999 32.5543,0.28068 3.0958,0.713 6.54321,3.30493 8.03064,6.03783 1.54868,2.84544 1.49436,1.54614 1.49436,35.74377 0,34.19763 0.0543,32.89833 -1.49436,35.74377 -1.48743,2.73291 -4.93484,5.32484 -8.03064,6.03783 -0.78747,0.18136 -11.85188,0.27051 -32.67604,0.26327 -26.23667,-0.009 -31.716333,-0.0731 -32.870626,-0.384 z m 21.890416,-24.21425 c 3.53977,-0.56905 6.45919,-2.6945 7.88772,-5.74257 0.63042,-1.34514 0.71124,-1.83327 0.71124,-4.29571 0,-2.5276 -0.0673,-2.90936 -0.74658,-4.23334 -0.41061,-0.80036 -1.03569,-1.75938 -1.38906,-2.13114 -0.35336,-0.37177 -0.64248,-0.8415 -0.64248,-1.04386 0,-0.20235 0.28912,-0.67209 0.64248,-1.04385 0.35337,-0.37177 0.97845,-1.33078 1.38906,-2.13115 0.67926,-1.32398 0.74658,-1.70574 0.74658,-4.23333 0,-2.46244 -0.0808,-2.95057 -0.71124,-4.29572 -1.42853,-3.04806 -4.34795,-5.17352 -7.88772,-5.74256 -2.26757,-0.36454 -15.213534,-0.36989 -15.892388,-0.007 -0.497907,0.26647 -0.511773,0.73927 -0.511773,17.44935 0,16.07846 0.02957,17.19269 0.46302,17.44515 0.619684,0.36093 13.701881,0.36529 15.941141,0.005 z m -10.84791,-10.05744 v -4.78166 l 5.51031,0.0853 c 5.47066,0.0847 5.51804,0.0904 6.58254,0.79544 1.8992,1.25788 2.64771,3.64649 1.78768,5.70482 -0.5482,1.31203 -1.11232,1.90207 -2.37116,2.48014 -0.91183,0.41871 -1.78167,0.48679 -6.28385,0.4918 l -5.22552,0.006 z m 0,-14.77836 v -4.78165 l 5.22552,0.006 c 6.56613,0.007 7.55872,0.34813 8.65501,2.97194 0.86003,2.05833 0.11152,4.44693 -1.78768,5.70481 -1.0645,0.70504 -1.11188,0.71076 -6.58254,0.79545 l -5.51031,0.0853 z m 41.80416,23.87598 c 2.10975,-0.97447 4.11481,-2.54009 5.12758,-4.00379 0.63686,-0.92042 0.70625,-1.16834 0.42262,-1.51009 -0.37446,-0.4512 -3.46672,-2.24167 -3.87151,-2.24167 -0.14017,0 -0.86736,0.59039 -1.61599,1.31197 -3.20819,3.09229 -8.20505,2.70507 -10.81935,-0.83841 -1.17069,-1.58678 -1.47838,-1.53189 8.58707,-1.53189 6.80861,0 9.29022,-0.0827 9.525,-0.3175 0.17462,-0.17463 0.3175,-0.99181 0.3175,-1.81597 0,-6.65172 -4.4938,-12.03615 -10.86883,-13.02291 -5.08851,-0.78763 -10.39953,1.92608 -12.86433,6.57314 -3.07227,5.79235 -1.14775,12.94883 4.44777,16.53947 2.22617,1.42853 3.94697,1.85054 7.11456,1.74477 2.41522,-0.0806 3.00278,-0.19653 4.49791,-0.88712 z m -11.37708,-14.71938 c 0,-0.19209 0.417,-0.83642 0.92667,-1.43186 2.3791,-2.77944 6.66917,-3.29947 9.67503,-1.17277 0.84524,0.59803 2.36288,2.39495 2.36288,2.79772 0,0.0859 -2.91703,0.15616 -6.48229,0.15616 -5.19278,0 -6.48229,-0.0695 -6.48229,-0.34925 z m 16.35125,-14.25575 c 0.19572,-0.19572 0.3175,-1.15622 0.3175,-2.50424 0,-1.89116 -0.0692,-2.22375 -0.51177,-2.46062 -0.32452,-0.17368 -3.86444,-0.27389 -9.67469,-0.27389 -5.81025,0 -9.35017,0.10021 -9.67468,0.27389 -0.4426,0.23687 -0.51178,0.56946 -0.51178,2.46062 0,1.34802 0.12178,2.30852 0.3175,2.50424 0.45533,0.45532 19.2826,0.45532 19.73792,0 z"
         id="path830"
         inkscape:connector-curvature="0" />
      <path
         style="fill:#bbbbbb;fill-opacity:0;stroke-width:0.26458332"
         d="m 92.755357,215.02342 c -3.470174,-1.10212 -5.961364,-3.24545 -7.487919,-6.44234 l -0.978747,-2.04968 v -32.94063 -32.94062 l 0.978747,-2.04968 c 1.282705,-2.68623 3.016596,-4.42012 5.702823,-5.70283 l 2.04968,-0.97874 32.263349,-0.0703 c 35.33183,-0.077 33.4884,-0.15071 36.46182,1.45844 1.80356,0.97604 4.03618,3.43497 5.03668,5.54721 l 0.85065,1.79589 v 32.94062 32.94063 l -0.84705,1.78819 c -0.95316,2.01219 -3.07127,4.40965 -4.78111,5.41169 -0.62572,0.36669 -1.85838,0.89103 -2.73926,1.16518 -1.53284,0.47708 -2.97231,0.49772 -33.52647,0.48078 -25.04145,-0.0139 -32.153049,-0.0902 -32.983193,-0.35382 z m 25.135413,-24.61535 c 2.03412,-0.99624 4.05827,-3.02528 5.03118,-5.04334 0.67461,-1.39934 0.76677,-1.88543 0.77749,-4.10104 0.014,-2.87948 -0.42564,-4.34692 -1.86822,-6.23682 -0.49376,-0.64685 -0.89774,-1.2931 -0.89774,-1.4361 0,-0.143 0.40398,-0.78925 0.89774,-1.4361 1.44258,-1.8899 1.88216,-3.35734 1.86822,-6.23682 -0.0107,-2.21561 -0.10288,-2.7017 -0.77749,-4.10104 -0.97291,-2.01806 -2.99706,-4.0471 -5.03118,-5.04333 l -1.5875,-0.7775 -8.72256,-0.0829 c -8.06635,-0.0766 -8.748104,-0.0479 -9.061982,0.3813 -0.446521,0.61066 -0.501057,33.69787 -0.05691,34.52777 0.27495,0.51375 0.517202,0.52567 9.061982,0.44563 l 8.77947,-0.0822 z m -13.83087,-9.34282 0.0725,-4.43177 5.17366,-0.0716 c 4.9745,-0.0688 5.2184,-0.0479 6.33604,0.54312 3.0556,1.61585 3.12828,6.08686 0.12657,7.78693 -0.99589,0.56405 -1.34358,0.59659 -6.41715,0.60071 l -5.36421,0.004 z m 0.11664,-10.56128 c -0.097,-0.097 -0.17639,-2.12108 -0.17639,-4.49792 v -4.32153 l 5.35781,0.004 c 5.06693,0.004 5.41498,0.0367 6.41075,0.60071 2.99598,1.69682 2.9291,6.17105 -0.11632,7.78151 -1.08683,0.57473 -1.43974,0.60926 -6.2258,0.60926 -2.79051,0 -5.15304,-0.0794 -5.25005,-0.17639 z m 39.89873,20.4083 c 1.90196,-0.49539 3.59842,-1.39595 5.18595,-2.75294 1.47265,-1.25877 2.69501,-2.9749 2.49333,-3.50048 -0.16719,-0.43566 -3.82795,-2.60142 -4.39716,-2.6014 -0.19935,0 -0.69188,0.41288 -1.09453,0.91751 -0.40264,0.50462 -1.29561,1.24876 -1.98437,1.65363 -1.09056,0.64106 -1.52569,0.73555 -3.36897,0.73156 -1.65428,-0.004 -2.3518,-0.12944 -3.19305,-0.57615 -1.07939,-0.57318 -3.02466,-2.49737 -3.02466,-2.99191 0,-0.17001 3.12822,-0.2651 8.7974,-0.26743 4.83857,-0.002 9.06235,-0.0746 9.38619,-0.16145 0.80857,-0.21674 1.00032,-1.46074 0.64701,-4.19766 -0.39352,-3.04854 -1.44811,-5.2695 -3.53319,-7.44089 -4.96209,-5.1675 -13.11944,-5.24582 -18.17295,-0.17448 -2.70698,2.71654 -3.91904,6.04004 -3.66885,10.0601 0.17693,2.84284 1.3819,5.49387 3.51236,7.72744 1.54156,1.61615 4.24807,3.2495 6.10849,3.68638 1.62733,0.38214 4.61382,0.32919 6.307,-0.11183 z m -9.38346,-15.54142 c 0,-0.6632 1.66595,-2.34019 3.00334,-3.02322 1.68542,-0.86079 3.94969,-0.9645 5.76958,-0.26427 1.3053,0.50224 3.81674,2.89588 3.52821,3.36272 -0.26038,0.42131 -12.30113,0.34767 -12.30113,-0.0752 z m 15.81775,-13.85542 c 0.58536,-0.15681 0.60186,-0.24538 0.52916,-2.84066 l -0.075,-2.67879 -10.03656,-0.0694 c -7.85354,-0.0543 -10.08266,0.003 -10.24855,0.26458 -0.26582,0.41874 -0.28048,4.46475 -0.0176,4.85835 0.10691,0.16008 0.37298,0.35904 0.59126,0.44213 0.53869,0.20506 18.49785,0.22722 19.25733,0.0238 z"
         id="path828"
         inkscape:connector-curvature="0" />
    </g>
  </g>
</svg>
