<svg width="13" height="13" viewBox="0 0 13 13" fill="none" xmlns="http://www.w3.org/2000/svg">
<path fill-rule="evenodd" clip-rule="evenodd" d="M6.90179 3.0625H4V2.75C4 1.36929 5.11929 0.25 6.5 0.25H10.25C11.6307 0.25 12.75 1.36929 12.75 2.75V6.5C12.75 7.88071 11.6307 9 10.25 9H9.9375V6.09821C9.9375 4.42164 8.57836 3.0625 6.90179 3.0625ZM6.5 12.75H2.75C1.36929 12.75 0.25 11.6307 0.25 10.25V6.5C0.25 5.11929 1.36929 4 2.75 4H6.5C7.88071 4 9 5.11929 9 6.5V10.25C9 11.6307 7.88071 12.75 6.5 12.75Z" fill="#1E201E"/>
</svg>
