<?xml version="1.0" encoding="UTF-8" standalone="no"?>
<svg
   xmlns:dc="http://purl.org/dc/elements/1.1/"
   xmlns:cc="http://creativecommons.org/ns#"
   xmlns:rdf="http://www.w3.org/1999/02/22-rdf-syntax-ns#"
   xmlns:svg="http://www.w3.org/2000/svg"
   xmlns="http://www.w3.org/2000/svg"
   xmlns:sodipodi="http://sodipodi.sourceforge.net/DTD/sodipodi-0.dtd"
   xmlns:inkscape="http://www.inkscape.org/namespaces/inkscape"
   width="13.125022"
   height="15.749997"
   viewBox="0 0 13.125022 15.749997"
   version="1.1"
   id="svg4"
   sodipodi:docname="edit_icon_svg.svg"
   style="fill:none"
   inkscape:version="0.92.4 (5da689c313, 2019-01-14)">
  <metadata
     id="metadata10">
    <rdf:RDF>
      <cc:Work
         rdf:about="">
        <dc:format>image/svg+xml</dc:format>
        <dc:type
           rdf:resource="http://purl.org/dc/dcmitype/StillImage" />
        <dc:title></dc:title>
      </cc:Work>
    </rdf:RDF>
  </metadata>
  <defs
     id="defs8" />
  <sodipodi:namedview
     pagecolor="#ffffff"
     bordercolor="#666666"
     borderopacity="1"
     objecttolerance="10"
     gridtolerance="10"
     guidetolerance="10"
     inkscape:pageopacity="0"
     inkscape:pageshadow="2"
     inkscape:window-width="1920"
     inkscape:window-height="1001"
     id="namedview6"
     showgrid="false"
     fit-margin-top="0"
     fit-margin-left="0"
     fit-margin-right="0"
     fit-margin-bottom="0"
     inkscape:zoom="11.238095"
     inkscape:cx="5.2499965"
     inkscape:cy="7.875"
     inkscape:window-x="-9"
     inkscape:window-y="-9"
     inkscape:window-maximized="1"
     inkscape:current-layer="svg4" />
  <path
     d="m 8.2416965,0.5924475 c 0.7899,-0.78993 2.0706005,-0.78993 2.8606005,0 l 1.4303,1.4303 c 0.7899,0.78993 0.7899,2.07066 0,2.86059 l -1.2682,1.26815 c -0.0996,-0.0493 -0.2043,-0.1026 -0.3129,-0.15978 -0.731,-0.38484 -1.5984005,-0.92496 -2.2458005,-1.57235 -0.6474,-0.64739 -1.1875,-1.51484 -1.5724,-2.24583 -0.0572,-0.10862 -0.1105,-0.21338 -0.1598,-0.31294 z m -0.4641,4.75498 c 0.7661,0.76608 1.7403,1.36902 2.5119005,1.77893 L 5.3024965,12.113397 c -0.3094,0.3094 -0.7109,0.5102 -1.1442,0.5721 l -3.00363,0.4291 c -0.66747,0.0953 -1.23959,-0.476799 -1.14423,-1.1443 l 0.42908,-3.0035995 c 0.0619,-0.4333 0.26265,-0.8348 0.57212,-1.1442 l 4.98696,-4.98704 c 0.41,0.77159 1.0129,1.74588 1.779,2.51197 z m -2.9651,9.0900695 c -0.3624,0 -0.65625,0.293801 -0.65625,0.656301 0,0.3624 0.29385,0.656199 0.65625,0.656199 h 7.6563005 c 0.3624,0 0.6562,-0.2938 0.6562,-0.656199 0,-0.3625 -0.2938,-0.656301 -0.6562,-0.656301 z"
     id="path2"
     inkscape:connector-curvature="0"
     style="clip-rule:evenodd;fill:#ffffff;fill-rule:evenodd" />
</svg>
