<svg width="12" height="14" viewBox="0 0 12 14" fill="none" xmlns="http://www.w3.org/2000/svg">
<path fill-rule="evenodd" clip-rule="evenodd" d="M0.5 0.333008C0.776142 0.333008 1 0.556865 1 0.833008V0.999674H8C8.73638 0.999674 9.33333 1.59663 9.33333 2.33301V3.66634V6.99967V7.49967C9.33333 7.95991 8.96024 8.33301 8.5 8.33301H8H2.66667H1V13.1663C1 13.4425 0.776142 13.6663 0.5 13.6663C0.223858 13.6663 0 13.4425 0 13.1663V8.33301V0.999674V0.833008C0 0.556865 0.223858 0.333008 0.5 0.333008ZM2.66667 9.66634V9.33301H8.5C9.51252 9.33301 10.3333 8.5122 10.3333 7.49967V3.66634H10.6667C11.403 3.66634 12 4.26329 12 4.99967V9.66634C12 10.4027 11.403 10.9997 10.6667 10.9997H4C3.26362 10.9997 2.66667 10.4027 2.66667 9.66634Z" fill="#1E201E"/>
</svg>
