<svg width="14" height="12" viewBox="0 0 14 12" fill="none" xmlns="http://www.w3.org/2000/svg">
<path fill-rule="evenodd" clip-rule="evenodd" d="M7 1.68282L7.53553 1.13486C9.01437 -0.378286 11.412 -0.378286 12.8909 1.13486C14.3697 2.648 14.3697 5.10129 12.8909 6.61444L8.07107 11.5461C7.47953 12.1513 6.52047 12.1513 5.92893 11.5461L1.10913 6.61444C-0.369709 5.10129 -0.369709 2.648 1.10913 1.13486C2.58796 -0.378287 4.98563 -0.378286 6.46447 1.13486L7 1.68282ZM10.5 1.5C10.2101 1.5 9.975 1.72386 9.975 2C9.975 2.27614 10.2101 2.5 10.5 2.5C10.9832 2.5 11.375 2.8731 11.375 3.33333C11.375 3.60948 11.6101 3.83333 11.9 3.83333C12.1899 3.83333 12.425 3.60948 12.425 3.33333C12.425 2.32081 11.5631 1.5 10.5 1.5Z" fill="#1E201E"/>
</svg>
