<svg width="430" height="144" viewBox="0 0 430 144" fill="none" xmlns="http://www.w3.org/2000/svg">
<path fill-rule="evenodd" clip-rule="evenodd" d="M441.984 -175.594C463.843 -139.854 427.807 -93.2462 428.618 -50.869C429.625 1.69648 481.748 59.1199 447.296 101.807C413.052 144.236 342.326 120.717 287.878 123.51C249.018 125.503 213.383 114.611 174.532 115.797C118.488 117.507 52.373 165.026 9.96301 131.991C-30.5775 100.411 -4.58824 32.7327 1.86336 -18.7048C6.89084 -58.7878 21.3621 -96.5034 43.0611 -131.894C62.49 -163.583 92.7455 -185.24 119.941 -211.288C153.347 -243.284 175.143 -299.839 221.069 -302.39C267.156 -304.95 284.963 -244.768 323.587 -222.6C360.843 -201.217 419.981 -211.571 441.984 -175.594Z" fill="#705C42"/>
</svg>
