<svg width="20" height="20" viewBox="0 0 20 20" fill="none" xmlns="http://www.w3.org/2000/svg">
<path d="M11.25 6.6665H13.75L11.25 9.1665H13.75" stroke="#1E201E" stroke-width="1.2" stroke-linecap="round" stroke-linejoin="round"/>
<path d="M15 1.6665H18.3333L15 4.99984H18.3333" stroke="#1E201E" stroke-width="1.2" stroke-linecap="round" stroke-linejoin="round"/>
<path d="M17.5561 9.88054L17.0425 9.57024L17.0425 9.57024L17.5561 9.88054ZM10.1193 2.4438L9.80901 1.93028L9.80901 1.93028L10.1193 2.4438ZM17.7334 9.99984C17.7334 14.2708 14.271 17.7332 10 17.7332V18.9332C14.9338 18.9332 18.9334 14.9336 18.9334 9.99984H17.7334ZM10 17.7332C5.72902 17.7332 2.26669 14.2708 2.26669 9.99984H1.06669C1.06669 14.9336 5.06628 18.9332 10 18.9332V17.7332ZM2.26669 9.99984C2.26669 5.72884 5.72902 2.2665 10 2.2665V1.0665C5.06628 1.0665 1.06669 5.06609 1.06669 9.99984H2.26669ZM12.9167 11.8998C10.2565 11.8998 8.10002 9.74334 8.10002 7.08317H6.90002C6.90002 10.4061 9.59377 13.0998 12.9167 13.0998V11.8998ZM17.0425 9.57024C16.1981 10.9677 14.6659 11.8998 12.9167 11.8998V13.0998C15.1033 13.0998 17.0169 11.933 18.0696 10.1908L17.0425 9.57024ZM8.10002 7.08317C8.10002 5.33391 9.03212 3.80178 10.4296 2.95733L9.80901 1.93028C8.06687 2.98298 6.90002 4.89652 6.90002 7.08317H8.10002ZM10 2.2665C9.93305 2.2665 9.8531 2.23601 9.79505 2.17559C9.74621 2.12475 9.7357 2.07762 9.73341 2.06068C9.73096 2.04253 9.72992 1.97807 9.80901 1.93028L10.4296 2.95733C10.8387 2.71013 10.9708 2.25701 10.9226 1.90007C10.8725 1.52929 10.581 1.0665 10 1.0665V2.2665ZM18.0696 10.1908C18.0218 10.2699 17.9573 10.2689 17.9392 10.2664C17.9222 10.2642 17.8751 10.2537 17.8243 10.2048C17.7638 10.1468 17.7334 10.0668 17.7334 9.99984H18.9334C18.9334 9.41882 18.4706 9.12732 18.0998 9.07724C17.7428 9.02904 17.2897 9.16114 17.0425 9.57024L18.0696 10.1908Z" fill="#1E201E"/>
</svg>
