<svg width="20" height="22" viewBox="0 0 20 22" fill="none" xmlns="http://www.w3.org/2000/svg">
<path fill-rule="evenodd" clip-rule="evenodd" d="M8.77018 1.27641C9.54438 0.889309 10.4557 0.889309 11.2299 1.27641L18.5466 4.93477C19.8364 5.57969 19.8364 7.42035 18.5466 8.06526L11.2299 11.7236C10.4557 12.1107 9.54438 12.1107 8.77018 11.7236L1.45346 8.06526C0.163622 7.42034 0.163629 5.57968 1.45346 4.93477L8.77018 1.27641ZM0.314584 16.1953C0.482812 15.8168 0.926034 15.6464 1.30455 15.8146L9.49227 19.4536C9.81548 19.5972 10.1844 19.5972 10.5076 19.4536L18.6953 15.8146C19.0739 15.6464 19.5171 15.8168 19.6853 16.1953C19.8535 16.5739 19.6831 17.0171 19.3045 17.1853L11.1168 20.8243C10.4058 21.1403 9.59412 21.1403 8.88306 20.8243L0.695339 17.1853C0.316826 17.0171 0.146356 16.5739 0.314584 16.1953ZM1.30455 11.3146C0.926034 11.1464 0.482812 11.3168 0.314584 11.6953C0.146356 12.0739 0.316826 12.5171 0.695339 12.6853L8.88306 16.3243C9.59412 16.6403 10.4058 16.6403 11.1168 16.3243L19.3045 12.6853C19.6831 12.5171 19.8535 12.0739 19.6853 11.6953C19.5171 11.3168 19.0739 11.1464 18.6953 11.3146L10.5076 14.9536C10.1844 15.0972 9.81548 15.0972 9.49227 14.9536L1.30455 11.3146Z" fill="#1E201E"/>
</svg>
