<svg width="16" height="16" viewBox="0 0 16 16" fill="none" xmlns="http://www.w3.org/2000/svg">
<path fill-rule="evenodd" clip-rule="evenodd" d="M9.05646 15.12L11.5608 15.122C13.0128 15.1232 14.2793 14.136 14.6325 12.7276L15.9192 7.59848C16.1696 6.60011 15.4151 5.63221 14.3858 5.63139L10.4791 5.6283L11.5144 3.85686C12.2845 2.53903 11.3348 0.882539 9.80844 0.881328L8.90076 0.880609L5.83645 6.23329C5.76805 6.35276 5.73202 6.48802 5.73191 6.62569L5.72677 13.1119C5.72656 13.3764 5.85855 13.6235 6.07851 13.7704L7.30165 14.5872C7.82117 14.9341 8.43175 15.1195 9.05646 15.12ZM2.17286 5.62171L2.96394 5.62234C3.83773 5.62303 4.54552 6.33194 4.54483 7.20574L4.54044 12.7432C4.53974 13.617 3.83083 14.3248 2.95704 14.3241L2.16596 14.3235C1.29217 14.3228 0.584382 13.6139 0.585075 12.7401L0.589465 7.2026C0.590158 6.32881 1.29907 5.62102 2.17286 5.62171Z" fill="#1E201E"/>
</svg>
