<svg width="20" height="20" viewBox="0 0 20 20" fill="none" xmlns="http://www.w3.org/2000/svg">
<path d="M16.5834 1.92249C16.4493 1.58117 15.968 1.58117 15.8339 1.92249L15.4752 2.83523C15.4343 2.93944 15.3521 3.02193 15.2483 3.06303L14.3389 3.423C13.9988 3.55762 13.9988 4.04067 14.3389 4.17529L15.2483 4.53527C15.3521 4.57637 15.4343 4.65885 15.4752 4.76306L15.8339 5.6758C15.968 6.01712 16.4493 6.01712 16.5834 5.6758L16.9421 4.76306C16.983 4.65885 17.0652 4.57637 17.169 4.53527L18.0784 4.17529C18.4184 4.04067 18.4184 3.55762 18.0784 3.423L17.169 3.06303C17.0652 3.02193 16.983 2.93944 16.9421 2.83523L16.5834 1.92249Z" stroke="#1E201E"/>
<path d="M13.3606 6.77456C13.2265 6.43324 12.7452 6.43324 12.6111 6.77456L12.4803 7.10735C12.4394 7.21156 12.3572 7.29405 12.2534 7.33515L11.9218 7.4664C11.5818 7.60101 11.5818 8.08406 11.9218 8.21868L12.2534 8.34993C12.3572 8.39103 12.4394 8.47352 12.4803 8.57772L12.6111 8.91051C12.7452 9.25183 13.2265 9.25183 13.3606 8.91051L13.4914 8.57772C13.5323 8.47352 13.6145 8.39103 13.7183 8.34993L14.0499 8.21868C14.39 8.08406 14.39 7.60101 14.0499 7.4664L13.7183 7.33515C13.6145 7.29405 13.5323 7.21156 13.4914 7.10735L13.3606 6.77456Z" stroke="#1E201E"/>
<path d="M17.5561 9.88054L17.0425 9.57024L17.0425 9.57024L17.5561 9.88054ZM10.1193 2.4438L9.80901 1.93028L9.80901 1.93028L10.1193 2.4438ZM17.7334 9.99984C17.7334 14.2708 14.271 17.7332 10 17.7332V18.9332C14.9338 18.9332 18.9334 14.9336 18.9334 9.99984H17.7334ZM10 17.7332C5.72902 17.7332 2.26669 14.2708 2.26669 9.99984H1.06669C1.06669 14.9336 5.06628 18.9332 10 18.9332V17.7332ZM2.26669 9.99984C2.26669 5.72884 5.72902 2.2665 10 2.2665V1.0665C5.06628 1.0665 1.06669 5.06609 1.06669 9.99984H2.26669ZM12.9167 11.8998C10.2565 11.8998 8.10002 9.74334 8.10002 7.08317H6.90002C6.90002 10.4061 9.59377 13.0998 12.9167 13.0998V11.8998ZM17.0425 9.57024C16.1981 10.9677 14.6659 11.8998 12.9167 11.8998V13.0998C15.1033 13.0998 17.0169 11.933 18.0696 10.1908L17.0425 9.57024ZM8.10002 7.08317C8.10002 5.33391 9.03212 3.80178 10.4296 2.95733L9.80901 1.93028C8.06687 2.98298 6.90002 4.89652 6.90002 7.08317H8.10002ZM10 2.2665C9.93305 2.2665 9.8531 2.23601 9.79505 2.17559C9.74621 2.12475 9.7357 2.07762 9.73341 2.06068C9.73096 2.04253 9.72992 1.97807 9.80901 1.93028L10.4296 2.95733C10.8387 2.71013 10.9708 2.25701 10.9226 1.90007C10.8725 1.52929 10.581 1.0665 10 1.0665V2.2665ZM18.0696 10.1908C18.0218 10.2699 17.9573 10.2689 17.9392 10.2664C17.9222 10.2642 17.8751 10.2537 17.8243 10.2048C17.7638 10.1468 17.7334 10.0668 17.7334 9.99984H18.9334C18.9334 9.41882 18.4706 9.12732 18.0998 9.07724C17.7428 9.02904 17.2897 9.16114 17.0425 9.57024L18.0696 10.1908Z" fill="#1E201E"/>
</svg>
