<?xml version="1.0" encoding="UTF-8" standalone="no"?>
<svg
   xmlns:dc="http://purl.org/dc/elements/1.1/"
   xmlns:cc="http://creativecommons.org/ns#"
   xmlns:rdf="http://www.w3.org/1999/02/22-rdf-syntax-ns#"
   xmlns:svg="http://www.w3.org/2000/svg"
   xmlns="http://www.w3.org/2000/svg"
   xmlns:sodipodi="http://sodipodi.sourceforge.net/DTD/sodipodi-0.dtd"
   xmlns:inkscape="http://www.inkscape.org/namespaces/inkscape"
   id="Layer_1"
   data-name="Layer 1"
   viewBox="0 0 21.99963 21.942492"
   version="1.1"
   sodipodi:docname="moon_icon_svg.svg"
   width="21.99963"
   height="21.942492"
   inkscape:version="0.92.4 (5da689c313, 2019-01-14)">
  <metadata
     id="metadata9">
    <rdf:RDF>
      <cc:Work
         rdf:about="">
        <dc:format>image/svg+xml</dc:format>
        <dc:type
           rdf:resource="http://purl.org/dc/dcmitype/StillImage" />
        <dc:title></dc:title>
      </cc:Work>
    </rdf:RDF>
  </metadata>
  <defs
     id="defs7" />
  <sodipodi:namedview
     pagecolor="#ffffff"
     bordercolor="#666666"
     borderopacity="1"
     objecttolerance="10"
     gridtolerance="10"
     guidetolerance="10"
     inkscape:pageopacity="0"
     inkscape:pageshadow="2"
     inkscape:window-width="1920"
     inkscape:window-height="1001"
     id="namedview5"
     showgrid="false"
     fit-margin-top="0"
     fit-margin-left="0"
     fit-margin-right="0"
     fit-margin-bottom="0"
     inkscape:zoom="9.8333333"
     inkscape:cx="11"
     inkscape:cy="10.971"
     inkscape:window-x="-9"
     inkscape:window-y="-9"
     inkscape:window-maximized="1"
     inkscape:current-layer="Layer_1" />
  <path
     d="m 21.386,10.974491 c -0.402,-0.167 -0.871,-0.056 -1.151,0.28 -0.928,1.105 -2.506,1.62 -4.968,1.62 -3.814,0 -6.179,-1.03 -6.179,-6.1579996 0,-2.397 0.532,-4.019 1.626,-4.957 0.33,-0.283 0.439,-0.749 0.269,-1.14900002 -0.17,-0.401 -0.571,-0.655 -1.015,-0.604 C 4.285,0.54449138 0,5.2484914 0,10.949491 c 0,6.062 4.944,10.993 11.022,10.993 5.72,0 10.438,-4.278 10.973,-9.951 0.042,-0.436 -0.205,-0.848 -0.609,-1.017 z"
     id="path2"
     inkscape:connector-curvature="0" />
</svg>
