<svg width="11" height="11" viewBox="0 0 11 11" fill="none" xmlns="http://www.w3.org/2000/svg">
<path fill-rule="evenodd" clip-rule="evenodd" d="M0 1.65C0 0.73873 0.73873 0 1.65 0H9.35C10.2613 0 11 0.73873 11 1.65V6.1875H0V1.65ZM0 7.0125H11V7.15C11 8.06127 10.2613 8.8 9.35 8.8H5.9125V10.175H7.15C7.37782 10.175 7.5625 10.3597 7.5625 10.5875C7.5625 10.8153 7.37782 11 7.15 11H3.85C3.62218 11 3.4375 10.8153 3.4375 10.5875C3.4375 10.3597 3.62218 10.175 3.85 10.175H5.0875V8.8H1.65C0.73873 8.8 0 8.06127 0 7.15V7.0125Z" fill="#705C42"/>
</svg>
