<svg width="12" height="12" viewBox="0 0 12 12" fill="none" xmlns="http://www.w3.org/2000/svg">
<path fill-rule="evenodd" clip-rule="evenodd" d="M0.837209 5.72093C0.837209 8.41813 3.02373 10.6047 5.72093 10.6047C8.41814 10.6047 10.6047 8.41813 10.6047 5.72093C10.6047 3.02373 8.41814 0.837209 5.72093 0.837209C3.02373 0.837209 0.837209 3.02373 0.837209 5.72093ZM5.72093 11.4419C2.56135 11.4419 0 8.88051 0 5.72093C0 2.56135 2.56135 0 5.72093 0C8.88051 0 11.4419 2.56135 11.4419 5.72093C11.4419 7.15005 10.9178 8.45679 10.0515 9.45946L11.8774 11.2854C12.0409 11.4489 12.0409 11.7139 11.8774 11.8774C11.7139 12.0409 11.4489 12.0409 11.2854 11.8774L9.45946 10.0515C8.45679 10.9178 7.15005 11.4419 5.72093 11.4419Z" fill="#1E201E"/>
</svg>
