<svg width="12" height="12" viewBox="0 0 12 12" fill="none" xmlns="http://www.w3.org/2000/svg">
<path fill-rule="evenodd" clip-rule="evenodd" d="M12 2.1C12 3.2598 11.0598 4.2 9.9 4.2C9.23926 4.2 8.6498 3.89485 8.26485 3.41779C8.25133 3.42647 8.23722 3.4345 8.22254 3.44185L4.17995 5.46314C4.1654 5.47042 4.15064 5.47683 4.13573 5.4824C4.1777 5.64797 4.2 5.82138 4.2 6C4.2 6.17862 4.1777 6.35203 4.13573 6.5176C4.15064 6.52317 4.1654 6.52959 4.17995 6.53686L8.22254 8.55816C8.23722 8.5655 8.25133 8.57354 8.26484 8.58221C8.6498 8.10515 9.23926 7.8 9.9 7.8C11.0598 7.8 12 8.7402 12 9.9C12 11.0598 11.0598 12 9.9 12C8.7402 12 7.8 11.0598 7.8 9.9C7.8 9.72138 7.8223 9.54797 7.86427 9.3824C7.84936 9.37683 7.8346 9.37042 7.82004 9.36314L3.77746 7.34185C3.76277 7.33451 3.74866 7.32647 3.73515 7.31779C3.3502 7.79485 2.76074 8.1 2.1 8.1C0.940202 8.1 0 7.1598 0 6C0 4.8402 0.940202 3.9 2.1 3.9C2.76074 3.9 3.3502 4.20515 3.73515 4.68221C3.74867 4.67354 3.76277 4.6655 3.77746 4.65816L7.82004 2.63686C7.8346 2.62959 7.84936 2.62317 7.86427 2.6176C7.8223 2.45203 7.8 2.27862 7.8 2.1C7.8 0.940202 8.7402 0 9.9 0C11.0598 0 12 0.940202 12 2.1Z" fill="#1E201E"/>
</svg>
