<svg width="294" height="268" viewBox="0 0 294 268" fill="none" xmlns="http://www.w3.org/2000/svg">
<path fill-rule="evenodd" clip-rule="evenodd" d="M97.0615 -220.556C137.359 -209.153 143.978 -153.692 173.891 -124.381C210.996 -88.0232 287.841 -80.3945 292.873 -28.6885C297.875 22.7051 231.263 50.6342 194.448 86.8419C168.172 112.684 135.273 127.43 108.445 152.698C69.7454 189.148 55.59 264.167 2.53987 267.592C-48.1718 270.865 -76.5273 206.895 -107.544 166.64C-131.714 135.272 -147.524 99.6301 -156.581 61.0789C-164.691 26.5608 -158.152 -7.70755 -156.83 -43.1413C-155.206 -86.6656 -178.845 -140.171 -147.928 -170.849C-116.902 -201.635 -62.5688 -170.484 -19.7352 -179.175C21.5802 -187.557 56.4979 -232.035 97.0615 -220.556Z" fill="#705C42"/>
</svg>
