<?xml version="1.0" encoding="UTF-8" standalone="no"?>
<!-- Created with Inkscape (http://www.inkscape.org/) -->

<svg
   xmlns:dc="http://purl.org/dc/elements/1.1/"
   xmlns:cc="http://creativecommons.org/ns#"
   xmlns:rdf="http://www.w3.org/1999/02/22-rdf-syntax-ns#"
   xmlns:svg="http://www.w3.org/2000/svg"
   xmlns="http://www.w3.org/2000/svg"
   xmlns:sodipodi="http://sodipodi.sourceforge.net/DTD/sodipodi-0.dtd"
   xmlns:inkscape="http://www.inkscape.org/namespaces/inkscape"
   width="166.78484mm"
   height="168.87979mm"
   viewBox="0 0 166.78484 168.87979"
   version="1.1"
   id="svg8"
   inkscape:version="0.92.4 (5da689c313, 2019-01-14)"
   sodipodi:docname="sebha_icon2.svg">
  <defs
     id="defs2" />
  <sodipodi:namedview
     id="base"
     pagecolor="#ffffff"
     bordercolor="#666666"
     borderopacity="1.0"
     inkscape:pageopacity="0.0"
     inkscape:pageshadow="2"
     inkscape:zoom="0.49497475"
     inkscape:cx="230.45878"
     inkscape:cy="521.60748"
     inkscape:document-units="mm"
     inkscape:current-layer="layer1"
     showgrid="false"
     fit-margin-top="0"
     fit-margin-left="0"
     fit-margin-right="0"
     fit-margin-bottom="0"
     inkscape:window-width="1920"
     inkscape:window-height="1001"
     inkscape:window-x="-9"
     inkscape:window-y="-9"
     inkscape:window-maximized="1" />
  <metadata
     id="metadata5">
    <rdf:RDF>
      <cc:Work
         rdf:about="">
        <dc:format>image/svg+xml</dc:format>
        <dc:type
           rdf:resource="http://purl.org/dc/dcmitype/StillImage" />
        <dc:title></dc:title>
      </cc:Work>
    </rdf:RDF>
  </metadata>
  <g
     inkscape:label="Layer 1"
     inkscape:groupmode="layer"
     id="layer1"
     transform="translate(-21.393425,-71.751653)">
    <path
       style="fill:#000000;stroke-width:0.26458332"
       d="m 54.352974,240.26686 c -0.727604,-0.16896 -1.322917,-0.40357 -1.322917,-0.52136 0,-0.11779 1.190625,-0.66466 2.645834,-1.21526 6.876467,-2.60183 10.760773,-5.48089 11.894486,-8.81622 0.526335,-1.54845 0.429479,-3.22349 -0.256442,-4.435 l -0.374502,-0.66145 -0.0094,0.67958 c -0.03373,2.44487 -2.213491,6.29835 -4.762799,8.41991 -1.99994,1.66437 -5.846561,3.54622 -8.395684,4.10735 -3.769371,0.82975 -8.348858,0.405 -11.197629,-1.03858 -1.571191,-0.79618 -1.678438,-1.18806 -0.325136,-1.18806 1.196202,0 5.707724,-0.83928 7.885927,-1.46702 4.079242,-1.17561 7.439085,-3.6628 8.064489,-5.96988 0.835033,-3.08042 -0.285663,-6.17235 -4.209253,-11.6131 -0.787067,-1.0914 -1.782736,-2.72851 -2.2126,-3.63802 -0.429863,-0.9095 -0.866955,-1.65364 -0.971311,-1.65364 -0.10436,0 -0.218038,1.83684 -0.252619,4.08188 -0.03458,2.24503 -0.160309,4.41792 -0.279392,4.82864 -0.460195,1.58723 -1.400805,3.20168 -2.536471,4.35358 -2.325677,2.35892 -5.214453,3.40465 -9.405172,3.40465 -6.942841,0 -13.463518,-3.6808 -16.418763,-9.26808 -0.825956,-1.56158 -0.671746,-1.91552 0.487027,-1.11783 1.465345,1.00873 5.553422,2.94069 7.954708,3.75926 6.685763,2.2791 10.576837,0.70882 12.099141,-4.88273 0.248184,-0.91159 0.530106,-3.47903 0.662151,-6.03014 0.429435,-8.29666 2.289913,-12.17458 6.938931,-14.46329 0.981101,-0.48299 1.78382,-0.98563 1.78382,-1.11697 0,-0.13134 -0.234333,-0.69814 -0.520739,-1.25954 -1.518431,-2.97637 -2.034387,-7.87778 -1.181423,-11.22312 1.598036,-6.26754 6.618155,-10.97236 13.054316,-12.23442 6.67444,-1.30878 13.600171,1.90992 17.155006,7.97271 1.580272,2.69516 2.018067,4.42832 2.035937,8.05998 0.01384,2.81064 -0.07971,3.60034 -0.622908,5.25878 -2.461308,7.51458 -10.116368,12.32524 -17.815501,11.19576 -1.200547,-0.17613 -2.468502,-0.39712 -2.817678,-0.49109 -0.627515,-0.16888 -0.632801,-0.15429 -0.456576,1.25941 0.435087,3.49033 2.946501,6.82564 9.163558,12.16976 1.755802,1.50927 3.611118,3.35213 4.122923,4.09525 1.041402,1.51207 1.960168,4.15491 1.960168,5.63845 0,2.9305 -1.843945,6.8195 -4.446844,9.37869 -2.126893,2.09117 -2.658533,2.50775 -4.548989,3.56447 -3.908885,2.18497 -8.695388,2.9759 -12.567708,2.07669 z m 9.765053,-42.81214 c 1.030836,-1.2043 1.356405,-2.33373 1.139302,-3.95236 -0.151223,-1.12745 -1.144376,-2.63091 -2.190875,-3.3166 -0.959196,-0.62849 -3.059088,-0.54648 -4.209309,0.1644 -0.918387,0.56759 -1.990629,2.20293 -1.990629,3.03603 0,0.59497 0.216799,0.51216 1.357757,-0.51863 0.765524,-0.6916 1.262589,-0.92604 1.963435,-0.92604 1.151427,0 2.272933,0.55437 3.005445,1.48561 0.755068,0.95991 0.76768,3.19659 0.02336,4.14284 -1.137674,1.44632 -0.34881,1.34547 0.901512,-0.11525 z m 32.363266,3.08384 c -5.077248,-1.28158 -9.148153,-4.8584 -11.289042,-9.91889 -0.923317,-2.18247 -1.265629,-7.3775 -0.653307,-9.9147 2.15429,-8.92642 11.131259,-14.33673 20.017166,-12.0641 4.99999,1.27879 8.74216,4.38668 10.8966,9.0497 4.06265,8.79308 -0.4447,19.30125 -9.63828,22.47011 -2.21122,0.76217 -7.036683,0.95754 -9.333137,0.37788 z m 30.589437,-7.2678 c -2.67038,-0.57068 -5.85747,-2.15313 -7.71341,-3.82986 l -0.98987,-0.89429 0.25809,-2.17898 c 0.47192,-3.98422 -0.65117,-8.43658 -3.01718,-11.96119 -1.25814,-1.87422 -1.26386,-1.89267 -0.90417,-2.91214 1.31126,-3.71651 4.44443,-7.34952 7.77557,-9.01602 1.05963,-0.53011 2.12492,-0.96384 2.3673,-0.96384 0.24239,0 0.56607,-0.12537 0.7193,-0.2786 0.45976,-0.45976 4.54229,-0.75944 6.71517,-0.49293 2.28635,0.28043 5.59548,1.47339 7.2559,2.61579 2.89987,1.99516 5.72852,6.11816 6.62367,9.65456 0.56849,2.2459 0.51764,6.21252 -0.10767,8.39913 -1.55882,5.4509 -5.65698,9.68942 -11.00254,11.37936 -1.81,0.57221 -6.28663,0.84092 -7.98016,0.47901 z M 149.63488,173.548 c -0.71005,-0.19499 -1.37993,-0.45224 -1.48861,-0.57165 -0.10868,-0.11942 -0.45251,-0.99103 -0.76406,-1.93691 -0.31155,-0.94589 -0.91387,-2.31001 -1.33849,-3.03139 -0.97152,-1.65052 -3.11188,-4.19003 -3.98137,-4.72387 -0.36381,-0.22337 -0.90074,-0.63138 -1.19319,-0.90671 -0.29245,-0.27532 -1.24495,-0.91842 -2.11667,-1.4291 l -1.58494,-0.92851 0.0149,-3.15531 c 0.0134,-2.83757 0.0907,-3.34183 0.76752,-5.0074 1.97973,-4.87221 5.2728,-8.08061 10.19774,-9.93558 1.51433,-0.57037 2.14652,-0.64776 5.29167,-0.64776 3.14515,0 3.77734,0.0774 5.29167,0.64776 4.45195,1.67681 7.47999,4.36024 9.38881,8.3203 2.3028,4.77743 2.35016,9.72765 0.13695,14.31528 -2.85083,5.9093 -8.47176,9.43321 -14.9444,9.36905 -1.31262,-0.013 -2.96753,-0.1832 -3.67758,-0.3782 z m -76.588938,-4.13318 c -3.129952,-1.34004 -7.865975,-1.66994 -11.365169,-0.79168 l -1.932614,0.48507 -1.191361,-0.78913 c -3.294832,-2.18241 -5.641091,-5.64577 -6.744578,-9.95582 -1.369952,-5.35081 0.331766,-11.20325 4.444833,-15.2864 6.042874,-5.99892 15.523506,-6.41618 22.15665,-0.97516 3.756149,3.08109 6.21263,8.65064 5.840086,13.24116 -0.222675,2.7438 -0.524012,4.01916 -1.508254,6.38341 -1.237689,2.97307 -5.063257,6.73511 -8.151937,8.01658 -0.218281,0.0906 -0.914725,-0.0571 -1.547656,-0.32803 z M 171.3264,153.81135 c -0.0636,-0.20169 -0.19063,-0.72389 -0.28223,-1.16045 -0.0916,-0.43657 -0.72104,-1.92485 -1.39877,-3.30729 -1.00527,-2.05056 -1.62441,-2.90571 -3.36129,-4.6426 -1.74025,-1.74024 -2.58808,-2.35346 -4.6426,-3.35792 -2.55954,-1.25135 -3.65144,-1.60624 -5.88698,-1.9134 l -1.25677,-0.17268 v -1.90733 c 0,-7.00248 5.32429,-13.74859 12.27639,-15.55473 3.68697,-0.95786 8.06373,-0.51235 11.40382,1.16081 3.89622,1.95173 6.65597,5.03541 8.34298,9.32222 0.54783,1.39207 0.62647,2.04349 0.6388,5.29167 0.0113,2.9672 -0.0853,3.99368 -0.48541,5.15937 -1.69682,4.94372 -5.27269,8.6497 -10.09877,10.46624 -2.11775,0.79711 -5.08228,1.14506 -5.24917,0.61609 z M 91.791514,153.2906 c -2.282481,-0.20446 -4.595121,-0.9079 -5.380368,-1.63658 -0.35321,-0.32776 -0.898453,-1.41491 -1.22511,-2.44271 -1.110838,-3.49517 -3.38709,-6.70892 -6.386605,-9.01699 l -1.559999,-1.20039 v -1.92032 c 0,-2.68814 0.432001,-4.74449 1.469233,-6.99365 2.75558,-5.97524 8.362503,-9.56687 14.934933,-9.56687 7.656512,0 14.245122,5.19015 16.020672,12.62023 0.47979,2.00774 0.47281,5.61181 -0.0149,7.68019 -0.77723,3.29651 -3.15821,7.02343 -5.73034,8.96962 -3.994818,3.02268 -7.19785,3.94904 -12.127546,3.50747 z m 24.473956,-16.55176 c -0.43656,-0.0593 -1.58297,-0.29284 -2.54758,-0.51902 l -1.75382,-0.41123 -0.45516,-2.29186 c -1.04775,-5.27572 -4.21285,-9.75872 -8.65508,-12.25889 l -1.5744,-0.88611 0.14511,-1.89042 c 0.28661,-3.73382 2.05561,-7.25725 5.09791,-10.15379 7.9522,-7.57124 21.01163,-5.23788 25.94625,4.63588 2.11275,4.22741 2.22931,9.63251 0.30295,14.0474 -1.90576,4.36765 -6.31052,8.06657 -10.96904,9.2113 -1.77585,0.43638 -4.3559,0.67715 -5.53714,0.51674 z m 65.5376,-13.60104 c -2.80471,-2.14109 -7.39865,-3.69211 -10.93557,-3.69211 -3.03005,0 -7.08251,1.23699 -9.84799,3.00605 -0.82772,0.52949 -1.59193,0.96247 -1.69824,0.96219 -0.2997,-8e-4 -1.81543,-2.35186 -2.55832,-3.96824 -4.17569,-9.08556 1.07614,-20.042975 10.84082,-22.618305 1.6313,-0.430237 5.9967,-0.5841 7.3992,-0.260792 6.12271,1.411422 11.00027,5.965067 12.70273,11.859177 0.71838,2.48713 0.60514,6.65724 -0.2541,9.35688 -0.62915,1.9767 -2.71001,5.60528 -3.64555,6.35706 -0.24559,0.19735 -0.78636,-0.0731 -2.00298,-1.00191 z m -34.97822,-18.90384 c -3.72204,-0.84061 -7.50472,-3.32143 -9.65141,-6.32975 -1.91339,-2.681375 -2.24954,-3.666533 -1.94856,-5.710606 0.28175,-1.913532 0.0881,-4.94562 -0.44644,-6.991286 -0.32547,-1.245462 -0.30629,-1.454226 0.26379,-2.87206 1.98997,-4.949258 6.06906,-8.667544 11.1042,-10.122037 2.10041,-0.606745 6.38607,-0.609158 8.50058,-0.0048 7.03799,2.011598 11.7836,7.877954 12.21148,15.095379 0.13937,2.350842 -0.32925,5.081617 -1.23195,7.178863 -0.48275,1.121606 -0.76945,1.399278 -2.22145,2.151576 -2.35465,1.21997 -4.53928,3.067169 -6.17549,5.221651 -1.14048,1.50173 -1.61949,1.91767 -2.53222,2.1988 -1.74771,0.53833 -5.8769,0.63497 -7.87253,0.18426 z m -38.76146,-0.6207 c -2.65956,-1.67458 -5.24926,-5.010095 -6.40581,-8.250627 -0.93029,-2.606601 -1.14649,-6.931663 -0.4756,-9.514507 1.42278,-5.477515 5.47686,-9.810197 10.94929,-11.70174 2.35563,-0.814222 7.58243,-0.873015 9.82274,-0.11049 2.7134,0.923548 4.58131,2.099826 6.77426,4.265938 3.56466,3.521048 5.06374,7.462435 4.78048,12.568854 -0.27091,4.883706 -2.70434,9.421202 -6.59314,12.293922 l -0.99153,0.73246 -1.84404,-0.68352 c -4.13,-1.53085 -8.30979,-1.54102 -12.50695,-0.0304 -1.05721,0.3805 -2.10079,0.74539 -2.31908,0.81087 -0.21828,0.0655 -0.75406,-0.10584 -1.19062,-0.38072 z"
       id="path21"
       inkscape:connector-curvature="0" />
  </g>
</svg>
