<svg width="16" height="16" viewBox="0 0 16 16" fill="none" xmlns="http://www.w3.org/2000/svg">
<path fill-rule="evenodd" clip-rule="evenodd" d="M0.5 3.5C0.5 1.84315 1.84315 0.5 3.5 0.5H12.5C14.1569 0.5 15.5 1.84315 15.5 3.5V12.5C15.5 14.1569 14.1569 15.5 12.5 15.5H3.5C1.84315 15.5 0.5 14.1569 0.5 12.5V3.5ZM2.1875 4.25C2.1875 3.11091 3.11091 2.1875 4.25 2.1875H11.75C12.8891 2.1875 13.8125 3.11091 13.8125 4.25V11.75C13.8125 12.8891 12.8891 13.8125 11.75 13.8125H4.25C3.11091 13.8125 2.1875 12.8891 2.1875 11.75V4.25ZM4.25 3.3125C3.73223 3.3125 3.3125 3.73223 3.3125 4.25V11.75C3.3125 12.2678 3.73223 12.6875 4.25 12.6875H11.75C12.2678 12.6875 12.6875 12.2678 12.6875 11.75V4.25C12.6875 3.73223 12.2678 3.3125 11.75 3.3125H4.25ZM8.5625 5.75C8.5625 5.43934 8.31066 5.1875 8 5.1875C7.68934 5.1875 7.4375 5.43934 7.4375 5.75V7.53647C7.4375 8.03361 7.71838 8.48808 8.16303 8.71041L9.24844 9.25312C9.52631 9.39205 9.86418 9.27942 10.0031 9.00156C10.142 8.72369 10.0294 8.38582 9.75156 8.24688L8.66615 7.70418C8.60263 7.67242 8.5625 7.60749 8.5625 7.53647V5.75Z" fill="#1E201E"/>
</svg>
