<svg width="17" height="17" viewBox="0 0 17 17" fill="none" xmlns="http://www.w3.org/2000/svg">
<path fill-rule="evenodd" clip-rule="evenodd" d="M16.6667 8.33333C16.6667 12.9357 12.9357 16.6667 8.33333 16.6667C3.73096 16.6667 0 12.9357 0 8.33333C0 3.73096 3.73096 0 8.33333 0C12.9357 0 16.6667 3.73096 16.6667 8.33333ZM8.33333 3.125C5.45685 3.125 3.125 5.45685 3.125 8.33333C3.125 11.2098 5.45685 13.5417 8.33333 13.5417C11.2098 13.5417 13.5417 11.2098 13.5417 8.33333C13.5417 5.45685 11.2098 3.125 8.33333 3.125ZM1.875 8.33333C1.875 4.76649 4.76649 1.875 8.33333 1.875C11.9002 1.875 14.7917 4.76649 14.7917 8.33333C14.7917 11.9002 11.9002 14.7917 8.33333 14.7917C4.76649 14.7917 1.875 11.9002 1.875 8.33333ZM8.95833 5.83333C8.95833 5.48816 8.67851 5.20833 8.33333 5.20833C7.98816 5.20833 7.70833 5.48816 7.70833 5.83333V7.81831C7.70833 8.37068 8.02042 8.87565 8.51448 9.12268L9.72049 9.72568C10.0292 9.88005 10.4046 9.75491 10.559 9.44618C10.7134 9.13744 10.5882 8.76202 10.2795 8.60765L9.0735 8.00464C9.00292 7.96935 8.95833 7.89722 8.95833 7.81831V5.83333Z" fill="#1E201E"/>
</svg>
